<?xml version="1.0" encoding="utf-8" ?>
<svg baseProfile="tiny" height="400px" version="1.2" width="600px" xmlns="http://www.w3.org/2000/svg" xmlns:ev="http://www.w3.org/2001/xml-events" xmlns:xlink="http://www.w3.org/1999/xlink"><defs /><text font-size="16px" font-weight="bold" x="180" y="20">CMOS Op-Amp (2-stage)</text><rect fill="none" height="60" stroke="black" width="40" x="100" y="150" /><text font-size="12" x="105" y="190">M1</text><rect fill="none" height="60" stroke="black" width="40" x="200" y="150" /><text font-size="12" x="205" y="190">M2</text><rect fill="none" height="60" stroke="black" width="40" x="100" y="60" /><text font-size="12" x="105" y="100">M4</text><rect fill="none" height="60" stroke="black" width="40" x="200" y="60" /><text font-size="12" x="205" y="100">M3</text><rect fill="none" height="60" stroke="black" width="40" x="150" y="240" /><text font-size="12" x="155" y="280">M5</text><rect fill="none" height="60" stroke="black" width="40" x="300" y="80" /><text font-size="12" x="305" y="120">M6</text><rect fill="none" height="60" stroke="black" width="40" x="300" y="160" /><text font-size="12" x="305" y="200">M7</text><line stroke="blue" stroke-dasharray="5,5" x1="120" x2="320" y1="60" y2="80" /><text fill="blue" font-size="12" x="210" y="65">Cc</text><line stroke="black" x1="340" x2="380" y1="160" y2="160" /><text font-size="12" x="385" y="165">Vout</text><text font-size="12" x="85" y="165">Vin+</text><text font-size="12" x="245" y="165">Vin-</text><text font-size="12" x="140" y="40">Vdd</text><text font-size="12" x="160" y="320">GND</text></svg>